<?xml version="1.0" encoding="iso-8859-1"?>
<!-- Generator: Adobe Illustrator 19.0.0, SVG Export Plug-In . SVG Version: 6.00 Build 0)  -->
<svg version="1.1" id="Capa_1" xmlns="http://www.w3.org/2000/svg" xmlns:xlink="http://www.w3.org/1999/xlink" x="0px" y="0px"
	 viewBox="0 0 512.001 512.001" style="enable-background:new 0 0 512.001 512.001;" xml:space="preserve">
<path style="fill:#EFA8B8;" d="M395.832,178.917L395.832,178.917c-4.82-6.764-10.957-12.303-17.924-16.39
	c-3.91-2.293-5.539-7.038-4.206-11.37C389.072,101.198,312.46,40.021,266.238,9.927c-7.501-4.884-17.557-2.137-21.633,5.831
	c-14.223,27.8-32.197,48.784-56.629,56.357c-44.259,13.719-63.45,50.157-54.276,82.348c1.154,4.051-0.372,8.343-3.808,10.778
	c-5.24,3.712-9.895,8.307-13.719,13.675l0,0c-7.831,10.991-7.831,25.739,0,36.73l0,0c10.925,15.333,28.59,24.436,47.417,24.436
	h184.827c18.827,0,36.491-9.103,47.417-24.436l0,0C403.663,204.656,403.663,189.908,395.832,178.917z"/>
<path style="fill:#EB8EA3;" d="M197.128,155.14c-18.191-18.344-23.047-54.906,6.224-90.002c-4.826,2.94-9.941,5.292-15.377,6.977
	c-44.259,13.719-63.45,50.157-54.276,82.348c1.154,4.051-0.372,8.343-3.808,10.778c-5.24,3.712-9.895,8.307-13.72,13.675l0,0
	c-7.831,10.991-7.831,25.739,0,36.73c10.925,15.333,28.59,24.436,47.417,24.436h62.391c-44.933-14.164-43.408-52.222-28.202-70.089
	C201.488,165.635,201.159,159.205,197.128,155.14z"/>
<path style="fill:#F4E08F;" d="M256.002,504.504L256.002,504.504c30.181,0,56.579-20.325,64.292-49.505l43.589-164.888H148.121
	l43.589,164.888C199.423,484.179,225.82,504.504,256.002,504.504z"/>
<path style="fill:#EBCE72;" d="M363.881,290.111l-4.918,18.604c-129.144,6.492-190.228,18.191-111.532,195.18
	c-26.498-3.436-48.751-22.521-55.723-48.896L148.12,290.111L363.881,290.111L363.881,290.111z"/>
<path style="fill:#F4E08F;" d="M138.28,227.735h235.443c11.514,0,20.847,9.334,20.847,20.848v20.68
	c0,11.514-9.334,20.848-20.847,20.848H138.28c-11.514,0-20.848-9.334-20.848-20.848v-20.68
	C117.432,237.069,126.766,227.735,138.28,227.735z"/>
<g>
	<ellipse style="fill:#FFFFFF;" cx="195.014" cy="174.036" rx="22.501" ry="17.919"/>
	<ellipse style="fill:#FFFFFF;" cx="316.985" cy="174.036" rx="22.501" ry="17.919"/>
</g>
<path style="fill:#799EE5;" d="M337.882,123.056c-4.463,0-8.926-1.703-12.332-5.108c-6.811-6.81-6.811-17.853,0-24.663
	l20.455-20.455c6.81-6.81,17.853-6.81,24.663,0c6.811,6.81,6.811,17.853,0,24.663l-20.454,20.455
	C346.808,121.353,342.345,123.056,337.882,123.056z"/>
<path style="fill:#9D7D75;" d="M183.655,112.829h-22.273c-9.632,0-17.44-7.808-17.44-17.44s7.808-17.44,17.44-17.44h22.273
	c9.632,0,17.44,7.808,17.44,17.44S193.287,112.829,183.655,112.829z"/>
<path style="fill:#E87684;" d="M264.449,99.473c-4.463,0-8.927-1.703-12.332-5.108L235.221,77.47c-6.811-6.81-6.811-17.853,0-24.663
	c6.81-6.81,17.853-6.81,24.663,0l16.895,16.895c6.811,6.81,6.811,17.853,0,24.663C273.376,97.77,268.913,99.473,264.449,99.473z"/>
<g>
	<path style="fill:#EBCE72;" d="M255.381,457.509c-1.919,0-3.839-0.732-5.304-2.196c-2.929-2.93-2.929-7.678,0-10.608l33.286-33.286
		c2.93-2.928,7.678-2.928,10.608,0c2.929,2.93,2.929,7.678,0,10.607l-33.286,33.286C259.22,456.777,257.3,457.509,255.381,457.509z"
		/>
	<path style="fill:#EBCE72;" d="M227.132,378.457c-1.919,0-3.839-0.732-5.304-2.196c-2.929-2.93-2.929-7.678,0-10.607l34.88-34.88
		c2.93-2.928,7.678-2.928,10.608,0c2.929,2.93,2.929,7.678,0,10.607l-34.88,34.88C230.97,377.725,229.051,378.457,227.132,378.457z"
		/>
	<path style="fill:#EBCE72;" d="M275.719,398.424c-1.919,0-3.839-0.732-5.304-2.196c-2.929-2.93-2.929-7.678,0-10.607l18.399-18.399
		c2.93-2.928,7.678-2.928,10.607,0c2.929,2.93,2.929,7.678,0,10.607l-18.399,18.399
		C279.557,397.692,277.637,398.424,275.719,398.424z"/>
</g>
<path d="M303.87,163.658c4.143,0,7.5-3.357,7.5-7.5v-7.946c0-4.143-3.357-7.5-7.5-7.5s-7.5,3.357-7.5,7.5v7.946
	C296.37,160.301,299.727,163.658,303.87,163.658z M262.967,151.583c-1.759,2.018-4.298,3.177-6.966,3.177
	c-2.668,0-5.207-1.158-6.966-3.177c-2.722-3.122-7.46-3.447-10.582-0.727c-3.123,2.722-3.447,7.46-0.727,10.582
	c4.609,5.288,11.27,8.321,18.274,8.321s13.665-3.033,18.274-8.321c2.721-3.122,2.396-7.86-0.727-10.582
	C270.427,148.135,265.69,148.46,262.967,151.583z M200.633,148.212v7.946c0,4.143,3.357,7.5,7.5,7.5c4.143,0,7.5-3.357,7.5-7.5
	v-7.946c0-4.143-3.357-7.5-7.5-7.5C203.99,140.712,200.633,144.07,200.633,148.212z M401.939,219.999
	c9.684-13.587,9.684-31.846,0.001-45.435c-5.391-7.567-12.2-13.794-20.237-18.508c-0.924-0.541-1.118-1.765-0.833-2.693
	c4.576-14.869,2.397-31.347-6.426-49.04l1.528-1.528c4.711-4.711,7.306-10.974,7.306-17.636s-2.595-12.925-7.305-17.635
	c-8.412-8.409-21.381-9.541-31.025-3.401c-9.206-9.705-20.001-19.637-32.218-29.605c-3.211-2.618-7.936-2.14-10.553,1.07
	c-2.618,3.209-2.14,7.934,1.07,10.553c11.665,9.518,21.943,18.964,30.679,28.158l-13.68,13.679
	c-4.71,4.711-7.304,10.974-7.304,17.636s2.594,12.925,7.304,17.635c4.711,4.71,10.975,7.305,17.636,7.305s12.925-2.595,17.636-7.305
	l7.644-7.644c5.262,12.311,6.402,23.496,3.372,33.344c-2.395,7.78,0.723,16.022,7.58,20.045c6.202,3.637,11.453,8.438,15.609,14.272
	c5.973,8.382,5.973,19.644,0,28.025c-2.6,3.649-5.681,6.922-9.176,9.776c-2.187-0.543-4.471-0.836-6.824-0.836H138.28
	c-2.353,0-4.637,0.293-6.824,0.836c-3.495-2.854-6.576-6.127-9.177-9.777c-5.972-8.381-5.972-19.643,0.001-28.024
	c3.286-4.612,7.306-8.619,11.946-11.907c6.015-4.262,8.701-11.879,6.685-18.954c-3.625-12.719-2.091-26.195,4.106-38.222
	c4.383,3.821,10.105,6.143,16.363,6.143h22.273c13.752,0,24.939-11.188,24.939-24.941c0-7.901-3.698-14.951-9.448-19.524
	c8.642-3.945,16.71-9.595,24.264-17.006c-0.523,2.026-0.797,4.132-0.797,6.279c0,6.662,2.595,12.925,7.305,17.636l16.896,16.896
	c4.711,4.71,10.974,7.304,17.634,7.304c6.661,0,12.924-2.594,17.635-7.304c4.711-4.711,7.306-10.974,7.306-17.636
	s-2.595-12.925-7.306-17.636l-16.895-16.894c-4.71-4.711-10.973-7.306-17.635-7.306c-3.581,0-7.043,0.756-10.214,2.181
	c4.876-6.837,9.518-14.558,13.941-23.203c1.005-1.963,2.726-3.355,4.846-3.92c2.084-0.554,4.22-0.214,6.02,0.957
	c4.531,2.95,9.128,6.056,13.663,9.229c3.398,2.377,8.071,1.549,10.445-1.844c2.375-3.395,1.55-8.07-1.845-10.445
	c-4.672-3.27-9.409-6.47-14.08-9.511C265,0.167,258.414-0.881,252.265,0.756c-6.189,1.649-11.415,5.871-14.338,11.583
	c-14.907,29.139-31.974,46.348-52.174,52.609c-4.892,1.517-9.64,3.373-14.165,5.495H161.38c-13.752,0-24.939,11.188-24.939,24.94
	c0,1.218,0.092,2.414,0.261,3.585c-12.041,17.259-15.776,38.038-10.217,57.546c0.28,0.981-0.086,2.004-0.933,2.604
	c-6.015,4.263-11.227,9.458-15.49,15.441c-9.683,13.589-9.683,31.848,0,45.435c2.305,3.236,4.903,6.237,7.754,8.997
	c-4.878,5.094-7.885,11.994-7.885,19.587v20.681c0,15.631,12.717,28.348,28.348,28.348h4.066l40.13,151.803
	c0.889,3.362,3.925,5.585,7.246,5.585c0.634,0,1.279-0.081,1.922-0.251c4.004-1.059,6.393-5.163,5.334-9.168l-39.116-147.969h196.28
	l-41.099,155.471c-6.836,25.86-30.292,43.922-57.041,43.922c-18.077,0-34.907-8.115-46.175-22.265
	c-2.58-3.24-7.299-3.776-10.539-1.195c-3.24,2.58-3.775,7.299-1.195,10.539c14.129,17.744,35.235,27.921,57.909,27.921
	c33.548,0,62.969-22.652,71.543-55.088l42.113-159.305h4.066c15.631,0,28.348-12.717,28.348-28.348v-20.681
	c0-7.593-3.007-14.493-7.885-19.587C397.037,226.235,399.635,223.235,401.939,219.999z M365.364,92.189l-20.454,20.454
	c-1.877,1.878-4.373,2.912-7.028,2.912s-5.151-1.034-7.029-2.912c-1.877-1.877-2.91-4.372-2.91-7.027
	c0-2.655,1.033-5.151,2.91-7.028l20.456-20.454c1.938-1.938,4.482-2.907,7.027-2.907c2.546,0,5.092,0.97,7.029,2.907
	c1.878,1.877,2.911,4.373,2.911,7.027C368.276,87.816,367.242,90.312,365.364,92.189z M240.525,58.111
	c1.877-1.878,4.373-2.912,7.028-2.912c2.655,0,5.15,1.034,7.028,2.912l16.896,16.894c1.877,1.877,2.911,4.373,2.911,7.028
	c0,2.655-1.034,5.151-2.911,7.028c-1.878,1.877-4.374,2.911-7.029,2.911c-2.654,0-5.15-1.034-7.027-2.911l-16.897-16.895
	c-1.877-1.877-2.911-4.373-2.911-7.028C237.613,62.484,238.647,59.988,240.525,58.111z M161.381,85.447h11.84
	c0.009,0,0.019,0.002,0.028,0.002c0.011,0,0.023-0.002,0.035-0.002h10.37c5.48,0,9.939,4.459,9.939,9.94
	c0,5.482-4.459,9.941-9.939,9.941h-22.273c-5.48,0-9.939-4.459-9.939-9.941C151.441,89.906,155.9,85.447,161.381,85.447z
	 M387.07,269.264c0,7.36-5.987,13.348-13.348,13.348H138.28c-7.36,0-13.348-5.987-13.348-13.348v-20.681
	c0-7.359,5.987-13.347,13.348-13.347h235.442c7.36,0,13.348,5.987,13.348,13.347V269.264z"/>
<g>
</g>
<g>
</g>
<g>
</g>
<g>
</g>
<g>
</g>
<g>
</g>
<g>
</g>
<g>
</g>
<g>
</g>
<g>
</g>
<g>
</g>
<g>
</g>
<g>
</g>
<g>
</g>
<g>
</g>
</svg>
