<?xml version="1.0" encoding="iso-8859-1"?>
<!-- Generator: Adobe Illustrator 19.0.0, SVG Export Plug-In . SVG Version: 6.00 Build 0)  -->
<svg version="1.1" id="Capa_1" xmlns="http://www.w3.org/2000/svg" xmlns:xlink="http://www.w3.org/1999/xlink" x="0px" y="0px"
	 viewBox="0 0 512.003 512.003" style="enable-background:new 0 0 512.003 512.003;" xml:space="preserve">
<path style="fill:#799EE5;" d="M405.17,504.501H106.833c-9.538,0-17.268-7.732-17.268-17.269V305.683H422.44v181.55
	C422.44,496.77,414.708,504.501,405.17,504.501z"/>
<path style="fill:#6E8FD1;" d="M246.154,305.683H89.565v181.55c0,9.538,7.732,17.269,17.268,17.269h267.441
	C249.396,477.726,237.806,354.698,246.154,305.683z"/>
<path style="fill:#E87684;" d="M164.757,210.193h-36.894c-14.502,0-27.592,8.695-33.215,22.064l-30.881,73.426h76.895
	L164.757,210.193z"/>
<polygon style="fill:#F8E8B9;" points="225.587,210.193 164.757,210.193 140.66,305.683 217.554,305.683 "/>
<polygon style="fill:#E87684;" points="286.418,210.193 225.587,210.193 217.554,305.683 294.449,305.683 "/>
<polygon style="fill:#F8E8B9;" points="347.248,210.193 286.418,210.193 294.449,305.683 371.344,305.683 "/>
<path style="fill:#E87684;" d="M384.142,210.193h-36.895l24.096,95.49h76.895l-30.881-73.426
	C411.735,218.888,398.646,210.193,384.142,210.193z"/>
<path style="fill:#D46170;" d="M102.213,360.864L102.213,360.864c21.234,0,38.447-17.213,38.447-38.447v-16.735H63.766v16.735
	C63.766,343.651,80.979,360.864,102.213,360.864z"/>
<path style="fill:#F0DBA5;" d="M179.107,360.864L179.107,360.864c21.234,0,38.447-17.213,38.447-38.447v-16.735H140.66v16.735
	C140.66,343.651,157.874,360.864,179.107,360.864z"/>
<path style="fill:#D46170;" d="M256.002,360.864L256.002,360.864c21.234,0,38.447-17.213,38.447-38.447v-16.735h-76.895v16.735
	C217.554,343.651,234.768,360.864,256.002,360.864z"/>
<path style="fill:#F0DBA5;" d="M332.896,360.864L332.896,360.864c21.234,0,38.447-17.213,38.447-38.447v-16.735h-76.895v16.735
	C294.449,343.651,311.662,360.864,332.896,360.864z"/>
<path style="fill:#D46170;" d="M409.791,360.864L409.791,360.864c21.234,0,38.447-17.213,38.447-38.447v-16.735h-76.895v16.735
	C371.344,343.651,388.557,360.864,409.791,360.864z"/>
<circle style="fill:#EFA8B8;" cx="306.659" cy="77.227" r="69.687"/>
<path style="fill:#EB8EA3;" d="M330.495,142.719c11.992-4.365,22.042-11.69,29.662-20.836
	c-70.074,10.71-96.685-73.793-70.076-112.336c-2.43,0.598-4.852,1.323-7.256,2.198c-36.167,13.164-54.816,53.155-41.652,89.322
	C254.336,137.235,294.327,155.883,330.495,142.719z"/>
<path style="fill:#F4E08F;" d="M137.817,138.686L137.817,138.686c-5.608-15.406-0.136-32.658,13.325-42.016l76.071-52.885
	l40.086,110.137l-92.267,8.385C158.704,163.79,143.425,154.092,137.817,138.686z"/>
<path style="fill:#EBCE72;" d="M227.213,43.784l-8.583,5.967c20.68,67.129,26.057,100.484-78.91,93.195
	c6.677,12.888,20.553,20.701,35.312,19.36l92.267-8.385L227.213,43.784z"/>
<path style="fill:#F4E08F;" d="M300.969,147.356L257.225,27.171c-2.139-5.878-8.638-8.908-14.515-6.769l-10.557,3.843
	c-5.878,2.139-8.908,8.638-6.769,14.515l43.744,120.185c2.139,5.878,8.638,8.908,14.515,6.769l10.557-3.842
	C300.078,159.733,303.108,153.234,300.969,147.356z"/>
<path style="fill:#EB8EA3;" d="M280.019,113.052c4.128-1.502,6.257-6.067,4.754-10.195l6.599-2.402l13.237,36.368l-6.599,2.402
	c-1.503-4.128-6.067-6.257-10.195-4.754l-2.092,0.761c-5.915,2.153-12.454-0.897-14.607-6.812l0,0
	c-2.153-5.915,0.897-12.454,6.812-14.607L280.019,113.052z"/>
<path style="fill:#F4E08F;" d="M188.557,395.695h-35.725c-12.227,0-22.139,9.913-22.139,22.14v86.667h80.005v-86.667
	C210.696,405.606,200.784,395.695,188.557,395.695z"/>
<path style="fill:#D1E9FA;" d="M364.442,458.27h-95.749c-6.492,0-11.754-5.263-11.754-11.754v-39.068
	c0-6.492,5.263-11.753,11.754-11.753h95.749c6.492,0,11.753,5.263,11.753,11.753v39.068
	C376.196,453.008,370.934,458.27,364.442,458.27z"/>
<path style="fill:#BADDF7;" d="M364.442,465.77h-95.749c-10.617,0-19.253-8.637-19.253-19.253v-39.068
	c0-10.617,8.638-19.253,19.253-19.253h95.749c10.617,0,19.253,8.638,19.253,19.253v39.068
	C383.695,457.133,375.059,465.77,364.442,465.77z M268.693,403.193c-2.346,0-4.254,1.909-4.254,4.254v39.068
	c0,2.346,1.909,4.254,4.254,4.254h95.749c2.346,0,4.254-1.908,4.254-4.254v-39.068c0-2.346-1.909-4.254-4.254-4.254H268.693z"/>
<path d="M154.785,450.872c-4.086,0-7.398,3.312-7.398,7.398s3.312,7.398,7.398,7.398c4.086,0,7.398-3.312,7.398-7.398
	C162.183,454.184,158.871,450.872,154.785,450.872z M455.732,305.566c-0.001-0.096-0.009-0.191-0.014-0.287
	c-0.01-0.196-0.027-0.39-0.052-0.582c-0.012-0.091-0.026-0.182-0.042-0.274c-0.036-0.211-0.081-0.418-0.134-0.622
	c-0.018-0.07-0.033-0.14-0.054-0.209c-0.085-0.294-0.184-0.582-0.303-0.859l-30.863-73.384
	c-6.81-16.192-22.561-26.656-40.128-26.656h-51.178v-52.895c0.032-0.012,0.064-0.021,0.096-0.033
	c39.995-14.557,60.69-58.939,46.134-98.935c-7.052-19.374-21.227-34.844-39.913-43.557c-18.686-8.714-39.647-9.63-59.021-2.577
	c-7.853,2.858-15.051,6.888-21.5,12.004c-1.268-1.073-2.675-1.997-4.221-2.718c-4.557-2.125-9.669-2.347-14.394-0.628l-10.557,3.843
	c-4.725,1.72-8.498,5.177-10.623,9.734c-2.063,4.425-2.317,9.371-0.757,13.979l-63.013,43.807
	c-3.401,2.365-4.241,7.038-1.877,10.439c1.458,2.096,3.792,3.219,6.165,3.219c1.477,0,2.969-0.435,4.274-1.342l59.74-41.531
	l33.425,91.832l-82.567,7.504c-12.924,1.177-25.05-6.522-29.489-18.716c-1.957-5.377-2.262-11.152-0.88-16.699
	c1.001-4.02-1.446-8.089-5.466-9.09c-4.019-1-8.089,1.446-9.09,5.466c-2.106,8.457-1.642,17.258,1.34,25.453
	c6.31,17.334,22.809,28.704,40.983,28.704c1.311,0,2.633-0.059,3.958-0.18l3.328-0.303v33.221h-51.178
	c-17.566,0-33.318,10.463-40.128,26.656L56.87,302.733c-0.119,0.278-0.218,0.565-0.303,0.859c-0.02,0.069-0.036,0.139-0.054,0.209
	c-0.053,0.204-0.098,0.411-0.134,0.622c-0.015,0.091-0.03,0.182-0.042,0.274c-0.025,0.192-0.041,0.386-0.052,0.582
	c-0.005,0.096-0.013,0.191-0.014,0.287c-0.001,0.04-0.006,0.078-0.006,0.118v16.734c0,18.111,10.537,33.804,25.799,41.283v123.533
	c0,13.657,11.111,24.769,24.769,24.769H405.17c13.657,0,24.769-11.111,24.769-24.769v-18.009c0-4.142-3.358-7.5-7.5-7.5
	c-4.142,0-7.5,3.358-7.5,7.5v18.009c0,5.387-4.383,9.77-9.77,9.77H218.196v-79.168c0-16.343-13.296-29.64-29.64-29.64h-35.725
	c-16.343,0-29.64,13.296-29.64,29.64v79.168h-16.358c-5.387,0-9.77-4.383-9.77-9.77V368.068c1.691,0.189,3.408,0.296,5.149,0.296
	c16.071,0,30.233-8.301,38.447-20.833c8.215,12.532,22.376,20.833,38.447,20.833s30.233-8.301,38.447-20.833
	c8.214,12.532,22.376,20.833,38.447,20.833c16.071,0,30.233-8.301,38.447-20.833c8.215,12.532,22.376,20.833,38.447,20.833
	c16.071,0,30.233-8.301,38.447-20.833c8.215,12.532,22.376,20.833,38.447,20.833c1.741,0,3.457-0.106,5.148-0.296v65.57
	c0,4.142,3.358,7.5,7.5,7.5c4.142,0,7.5-3.358,7.5-7.5V363.7c15.262-7.479,25.799-23.172,25.799-41.283v-16.734
	C455.738,305.644,455.733,305.605,455.732,305.566z M138.191,417.834c0-8.073,6.568-14.64,14.64-14.64h35.725
	c8.073,0,14.64,6.568,14.64,14.64v79.168h-65.005v-79.168H138.191z M285.389,18.792c32.225-11.73,67.981,4.945,79.711,37.168
	c11.729,32.225-4.946,67.982-37.169,79.711c-7.087,2.58-14.425,3.816-21.875,3.732l-0.999-2.744
	c-1.412-3.879-4.25-6.976-7.991-8.721c-3.741-1.744-7.938-1.927-11.816-0.516l-2.091,0.761c-2.018,0.734-4.261-0.31-4.995-2.329
	c-0.735-2.02,0.31-4.261,2.328-4.996l2.093-0.761c3.879-1.412,6.976-4.25,8.721-7.991c1.745-3.742,1.928-7.939,0.516-11.816
	l-25.586-70.298C271.885,25.143,278.302,21.372,285.389,18.792z M293.921,149.921c0.35,0.96,0.304,1.999-0.127,2.925
	c-0.432,0.926-1.199,1.629-2.159,1.978l-10.557,3.842c-0.961,0.35-1.999,0.304-2.926-0.127c-0.926-0.432-1.628-1.199-1.978-2.159
	l-6.256-17.187c4.989,4.035,11.91,5.437,18.368,3.087l2.091-0.761c0.235-0.086,0.497,0.035,0.582,0.271l0,0L293.921,149.921z
	 M232.432,36.195c-0.349-0.96-0.304-1.999,0.128-2.925c0.432-0.926,1.199-1.628,2.159-1.978l10.557-3.842
	c0.427-0.156,0.87-0.233,1.311-0.233c0.551,0,1.1,0.121,1.615,0.36c0.926,0.432,1.628,1.199,1.977,2.159l27.548,75.687
	c0.018,0.048,0.064,0.176-0.015,0.347c-0.08,0.171-0.208,0.217-0.256,0.235l-2.093,0.761c-6.456,2.35-10.858,7.875-12.085,14.171
	L232.432,36.195z M133.161,322.418c0,17.064-13.883,30.948-30.948,30.948s-30.948-13.882-30.948-30.948v-9.235h61.895V322.418z
	 M134.818,298.183H75.056l26.504-63.018c4.464-10.614,14.787-17.471,26.302-17.471h27.268L134.818,298.183z M210.056,322.418
	c0,17.064-13.883,30.948-30.948,30.948s-30.948-13.882-30.948-30.948v-9.235h61.895L210.056,322.418L210.056,322.418z
	 M210.66,298.183h-60.372l20.311-80.491h46.831L210.66,298.183z M286.949,322.418c0,17.064-13.883,30.948-30.948,30.948
	s-30.948-13.882-30.948-30.948v-9.235h61.895V322.418z M225.712,298.183l6.77-80.491h47.04l6.771,80.491H225.712z M286.568,202.694
	c-0.012,0-0.025,0-0.037,0h-92.493v-34.585l68.211-6.199c1.767,4.534,5.141,8.159,9.566,10.222c2.531,1.18,5.232,1.773,7.944,1.773
	c2.171,0,4.349-0.38,6.45-1.145l10.557-3.842c4.726-1.72,8.498-5.177,10.624-9.734c0.722-1.548,1.206-3.163,1.487-4.802
	c3.05-0.084,6.082-0.349,9.09-0.796v49.106h-31.397V202.694z M294.574,217.693h46.831l20.311,80.491h-60.371L294.574,217.693z
	 M363.844,322.418c0,17.064-13.882,30.948-30.948,30.948c-17.064,0-30.948-13.882-30.948-30.948v-9.235h61.894v9.235H363.844z
	 M356.874,217.693h27.268c11.515,0,21.838,6.858,26.302,17.471c0,0.001,0,0.001,0,0.001l26.504,63.018h-59.762L356.874,217.693z
	 M440.739,322.418c0,17.064-13.883,30.948-30.948,30.948s-30.948-13.882-30.948-30.948v-9.235h61.895V322.418z M268.693,388.194
	c-10.617,0-19.253,8.638-19.253,19.253v39.068c0,10.617,8.638,19.253,19.253,19.253h95.749c10.617,0,19.253-8.637,19.253-19.253
	v-39.068c0-10.617-8.638-19.253-19.253-19.253H268.693z M368.696,407.448v39.068c0,2.346-1.909,4.254-4.254,4.254h-95.749
	c-2.346,0-4.254-1.908-4.254-4.254v-39.068c0-2.346,1.909-4.254,4.254-4.254h95.749
	C366.788,403.193,368.696,405.102,368.696,407.448z"/>
<g>
</g>
<g>
</g>
<g>
</g>
<g>
</g>
<g>
</g>
<g>
</g>
<g>
</g>
<g>
</g>
<g>
</g>
<g>
</g>
<g>
</g>
<g>
</g>
<g>
</g>
<g>
</g>
<g>
</g>
</svg>
