<?xml version="1.0" encoding="iso-8859-1"?>
<!-- Generator: Adobe Illustrator 19.0.0, SVG Export Plug-In . SVG Version: 6.00 Build 0)  -->
<svg version="1.1" id="Capa_1" xmlns="http://www.w3.org/2000/svg" xmlns:xlink="http://www.w3.org/1999/xlink" x="0px" y="0px"
	 viewBox="0 0 512.001 512.001" style="enable-background:new 0 0 512.001 512.001;" xml:space="preserve">
<path style="fill:#799EE5;" d="M370.557,504.5c12.535,0,22.182-11.268,20.03-23.617c-11.187-64.198-67.188-113.005-134.588-113.005
	s-123.401,48.807-134.588,113.005c-2.152,12.349,7.495,23.617,20.03,23.617H370.557z"/>
<path style="fill:#F8E8B9;" d="M323.957,445.249H188.041c-7.831,0-14.18,6.349-14.18,14.18v45.07h164.276v-45.07
	C338.137,451.598,331.788,445.249,323.957,445.249z"/>
<path style="fill:#E87684;" d="M304.795,482.375h-22.961c-4.143,0-7.5-3.358-7.5-7.5s3.357-7.5,7.5-7.5h22.961
	c4.143,0,7.5,3.358,7.5,7.5S308.938,482.375,304.795,482.375z"/>
<g>
	<path style="fill:#F9ECC5;" d="M202.059,452.75c-4.143,0-7.5-3.358-7.5-7.5v-50.747c0-4.142,3.357-7.5,7.5-7.5s7.5,3.358,7.5,7.5
		v50.747C209.559,449.392,206.201,452.75,202.059,452.75z"/>
	<path style="fill:#F9ECC5;" d="M309.939,452.75c-4.142,0-7.5-3.358-7.5-7.5v-50.747c0-4.142,3.358-7.5,7.5-7.5
		c4.143,0,7.5,3.358,7.5,7.5v50.747C317.439,449.392,314.082,452.75,309.939,452.75z"/>
</g>
<g>
	<circle style="fill:#E3BB90;" cx="120.389" cy="294.48" r="37.937"/>
	<circle style="fill:#E3BB90;" cx="391.609" cy="294.48" r="37.937"/>
</g>
<path style="fill:#F5CB9F;" d="M391.612,294.484c0-74.897-60.716-135.613-135.613-135.613s-135.613,60.716-135.613,135.613
	s60.716,119.412,135.613,119.412S391.612,369.381,391.612,294.484z"/>
<path style="fill:#E3BB90;" d="M255.999,158.871c-74.897,0-135.613,60.716-135.613,135.613s60.716,119.412,135.613,119.412
	c28.48,0,54.905-6.443,76.726-18.539c-182.586,18.539-192.962-128.648-152.131-173.093c66.049,53.779,138.662,13.691,165.438-9.816
	l10.359-9.137C331.582,176.011,295.792,158.871,255.999,158.871z"/>
<g>
	<path style="fill:#414C59;" d="M139.762,266.708c34.319-16.214,65.646-47.272,65.646-102.755
		c-45.243,0-88.575,32.786-85.915,90.579C119.957,264.611,130.64,271.018,139.762,266.708z"/>
	<path style="fill:#414C59;" d="M372.236,266.708c-34.319-16.214-65.646-47.272-65.646-102.755
		c45.243,0,88.575,32.786,85.915,90.579C392.041,264.611,381.358,271.018,372.236,266.708z"/>
	<path style="fill:#414C59;" d="M180.593,200.937c18.933,34.71,98.271,62.659,155.07,22.99v-42.374h-155.07V200.937z"/>
</g>
<path style="fill:#F8E8B9;" d="M370.999,122.5c0-63.513-51.487-115-115-115s-115,51.487-115,115H370.999z"/>
<path style="fill:#F0DBA5;" d="M241.867,8.365C185.022,15.332,140.999,63.773,140.999,122.5h141.169
	C237.432,107.53,206.777,48.358,241.867,8.365z"/>
<path style="fill:#B18E82;" d="M382.271,129.404l-11.816,57.719c-1.192,5.821-5.971,10.238-11.868,10.971
	c-38.466,4.78-52.612,3.862-102.588,3.862s-64.122,0.918-102.588-3.862c-5.896-0.733-10.676-5.15-11.868-10.971l-11.816-57.719
	c-1.699-8.3,4.642-16.071,13.115-16.071h226.315C377.629,113.333,383.97,121.104,382.271,129.404z"/>
<path style="fill:#A38277;" d="M142.842,113.333c-8.472,0-14.814,7.771-13.115,16.071l11.816,57.719
	c1.192,5.821,5.971,10.238,11.868,10.971c38.466,4.78,52.612,3.862,102.588,3.862c17.567,0,30.698,0.113,42.024,0.052
	c-53.988-13.846-63.386-64.914-52.909-88.675L142.842,113.333L142.842,113.333z"/>
<path style="fill:#8A6C68;" d="M327.278,218.983c-1.507,0-3.037-0.183-4.566-0.565c-7.552-1.889-36.019-7.279-66.713-7.279
	s-59.161,5.39-66.713,7.279c-10.055,2.513-20.241-3.6-22.755-13.652c-2.513-10.053,3.598-20.241,13.652-22.755
	c9.344-2.336,41.178-8.399,75.816-8.399s66.472,6.063,75.816,8.399c10.053,2.514,16.165,12.701,13.652,22.755
	C343.335,213.291,335.684,218.983,327.278,218.983z"/>
<path style="fill:#F8E8B9;" d="M308.374,128.871c0-8.581-6.957-15.538-15.538-15.538v-10.717h65.509v10.717
	c-8.582,0-15.538,6.957-15.538,15.538v12.025c0,9.508-7.708,17.216-17.216,17.216l0,0c-9.508,0-17.216-7.708-17.216-17.216v-12.025
	H308.374z"/>
<path style="fill:#F0DDAC;" d="M308.374,128.871v12.025c0,9.508,7.708,17.216,17.216,17.216c4.292,0,8.208-1.58,11.223-4.178
	c-11.736-0.029-18.874-9.358-18.874-22.586c0-17.228-14.002-18.016-25.103-18.016C301.418,113.333,308.374,120.29,308.374,128.871z"
	/>
<g>
	<ellipse style="fill:#E87684;" cx="203.869" cy="80.73" rx="19.236" ry="15.318"/>
	<ellipse style="fill:#E87684;" cx="308.129" cy="80.73" rx="19.236" ry="15.318"/>
	<ellipse style="fill:#E87684;" cx="178.669" cy="319.8" rx="28.532" ry="22.722"/>
	<ellipse style="fill:#E87684;" cx="333.329" cy="319.8" rx="28.533" ry="22.722"/>
</g>
<path d="M255.999,78.167c6.304,0,12.297-2.729,16.443-7.488c2.722-3.123,2.396-7.86-0.728-10.582
	c-3.122-2.722-7.861-2.396-10.581,0.727c-1.297,1.489-3.169,2.342-5.135,2.342c-1.966,0-3.838-0.854-5.135-2.342
	c-2.721-3.123-7.459-3.448-10.581-0.727c-3.123,2.721-3.449,7.458-0.728,10.582C243.702,75.438,249.695,78.167,255.999,78.167z
	 M222.577,65.451v-6.793c0-4.142-3.357-7.5-7.5-7.5s-7.5,3.358-7.5,7.5v6.793c0,4.142,3.357,7.5,7.5,7.5
	C219.22,72.951,222.577,69.593,222.577,65.451z M304.421,65.451v-6.793c0-4.142-3.357-7.5-7.5-7.5s-7.5,3.358-7.5,7.5v6.793
	c0,4.142,3.357,7.5,7.5,7.5S304.421,69.593,304.421,65.451z M195.3,273.992c-11.624,0-21.081,9.457-21.081,21.081
	c0,4.142,3.357,7.5,7.5,7.5s7.5-3.358,7.5-7.5c0-3.353,2.728-6.081,6.081-6.081s6.081,2.728,6.081,6.081c0,4.142,3.357,7.5,7.5,7.5
	s7.5-3.358,7.5-7.5C216.381,283.449,206.924,273.992,195.3,273.992z M391.169,339.914c0.147,0.001,0.296,0.008,0.443,0.008
	c25.055,0,45.438-20.383,45.438-45.438c0-21.991-15.978-40.578-36.93-44.606c0.083-24.235-7.506-45.566-22.125-62.19l11.623-56.78
	c1.264-6.173-0.296-12.513-4.279-17.395c-2.115-2.592-4.774-4.591-7.744-5.901c-3.473-28.649-16.923-55.072-38.235-74.874
	C316.639,11.627,287.033,0,255.999,0c-19.55,0-38.236,4.47-55.541,13.287c-3.69,1.88-5.158,6.397-3.277,10.087
	c1.881,3.691,6.398,5.158,10.088,3.278C222.443,18.92,238.839,15,255.999,15c27.234,0,53.213,10.203,73.151,28.728
	c17.81,16.548,29.361,38.36,33.056,62.105h-3.861c-12.703,0-23.038,10.335-23.038,23.038v12.025c0,5.358-4.359,9.717-9.717,9.717
	s-9.717-4.359-9.717-9.717v-12.025c0-12.703-10.335-23.038-23.038-23.038H149.811c3.557-22.767,14.374-43.889,31.002-60.164
	c2.96-2.897,3.011-7.646,0.113-10.606c-2.896-2.959-7.645-3.012-10.605-0.114c-19.94,19.518-32.573,45.154-35.919,72.665
	c-2.968,1.31-5.626,3.308-7.741,5.899c-3.984,4.882-5.544,11.222-4.281,17.396l11.624,56.779
	c-14.618,16.625-22.208,37.956-22.124,62.19c-20.953,4.027-36.93,22.614-36.93,44.606c0,25.054,20.383,45.438,45.438,45.438
	c0.147,0,0.296-0.007,0.443-0.008c7.015,18.606,18.598,34.868,34.47,48.12c2.562,2.139,5.227,4.179,7.98,6.125
	c-26.044,21.84-43.396,51.804-49.257,85.437c-1.397,8.019,0.818,16.206,6.079,22.463c5.312,6.318,13.09,9.942,21.339,9.942H370.56
	c8.249,0,16.027-3.623,21.339-9.942c5.261-6.257,7.477-14.444,6.079-22.462c-0.3-1.722-0.633-3.449-0.99-5.133
	c-0.86-4.052-4.844-6.641-8.893-5.78c-4.052,0.859-6.64,4.841-5.78,8.893c0.319,1.506,0.618,3.051,0.887,4.595
	c0.636,3.645-0.379,7.375-2.782,10.234c-2.455,2.92-6.049,4.595-9.858,4.595h-24.921v-37.57c0-11.955-9.726-21.68-21.68-21.68
	h-6.518v-27.119c6.18-2.336,12.113-5.04,17.762-8.095c15.133,11.78,27.597,26.896,36.2,43.981c1.317,2.618,3.96,4.128,6.704,4.128
	c1.134,0,2.285-0.258,3.367-0.803c3.7-1.863,5.189-6.373,3.325-10.072c-8.775-17.426-21.151-33.009-36.102-45.596
	c2.761-1.951,5.434-3.995,8.003-6.141C372.571,374.781,384.154,358.52,391.169,339.914z M396.276,266.033
	c0.321-0.471,0.616-0.958,0.899-1.453c14.102,2.642,24.875,15.126,24.875,29.904c0,15.368-11.451,28.105-26.268,30.145
	c2.206-9.566,3.331-19.637,3.331-30.145C399.112,284.912,398.157,275.36,396.276,266.033z M89.948,294.484
	c0-14.779,10.773-27.262,24.875-29.904c0.282,0.495,0.578,0.982,0.899,1.453c-1.881,9.326-2.836,18.878-2.836,28.451
	c0,10.508,1.125,20.579,3.33,30.145C101.4,322.589,89.948,309.853,89.948,294.484z M385.013,254.187
	c-0.147,3.193-2.322,4.837-3.25,5.396c-0.933,0.561-3.418,1.717-6.323,0.344c-18.045-8.525-32.384-19.983-42.643-34.05
	c9.632-2.065,17.476-9.41,19.947-19.291c0.02-0.082,0.035-0.163,0.055-0.245c2.161-0.249,4.387-0.515,6.714-0.804
	c3.833-0.476,7.347-1.967,10.278-4.192C380.705,215.625,385.954,233.711,385.013,254.187z M255.999,203.639
	c-26.117,0-50.734,3.83-62.794,6.244c-0.054,0.009-0.108,0.022-0.162,0.032c-0.468,0.094-0.917,0.186-1.346,0.275
	c-0.05,0.01-0.101,0.02-0.151,0.031c-1.691,0.354-3.069,0.668-4.078,0.92c-6.033,1.508-12.154-2.171-13.66-8.195
	c-0.273-1.094-0.371-2.19-0.32-3.262c0.001-0.05,0.005-0.1,0.005-0.149c0.292-4.774,3.629-9.027,8.508-10.248
	c9.098-2.274,40.124-8.176,73.998-8.176s64.9,5.901,73.997,8.175c4.88,1.221,8.218,5.474,8.509,10.248
	c0,0.049,0.004,0.1,0.005,0.149c0.051,1.072-0.047,2.168-0.32,3.262c-1.257,5.025-5.744,8.536-10.913,8.536
	c-0.917,0-1.842-0.115-2.746-0.34C316.749,209.196,287.452,203.639,255.999,203.639z M318.798,225.204
	c-34.272,16.914-75.961,11.976-104.581-3.609c11.707-1.584,26.436-2.956,41.781-2.956
	C283.601,218.639,309.222,223.076,318.798,225.204z M138.281,122.998c0.659-0.809,2.129-2.165,4.561-2.165h149.994
	c4.433,0,8.038,3.606,8.038,8.038v12.025c0,13.629,11.088,24.717,24.717,24.717s24.717-11.088,24.717-24.717v-12.025
	c0-4.432,3.605-8.038,8.038-8.038h10.81c2.432,0,3.901,1.356,4.561,2.165s1.693,2.521,1.206,4.903l-11.815,57.719
	c-0.079,0.388-0.203,0.757-0.348,1.115c-0.007,0.016-0.015,0.031-0.022,0.047c-0.865,2.079-2.777,3.584-5.074,3.87
	c-1.967,0.244-3.852,0.47-5.693,0.684c-2.874-7.959-9.528-14.397-18.336-16.6c-9.595-2.399-42.246-8.624-77.635-8.624
	s-68.04,6.225-77.636,8.624c-8.808,2.203-15.462,8.641-18.336,16.6c-1.841-0.214-3.725-0.44-5.692-0.684
	c-2.71-0.337-4.898-2.359-5.445-5.032l-11.816-57.718C136.587,125.519,137.621,123.806,138.281,122.998z M142.208,201.344
	c2.931,2.226,6.446,3.716,10.279,4.192c2.326,0.289,4.551,0.555,6.713,0.804c0.02,0.082,0.034,0.163,0.055,0.245
	c2.502,10.007,10.474,17.231,19.932,19.292c-10.228,14.058-24.502,25.485-42.628,34.049c-2.908,1.375-5.391,0.216-6.323-0.344
	c-0.928-0.559-3.104-2.203-3.25-5.396C126.044,233.711,131.293,215.625,142.208,201.344z M166.361,459.43V497H141.44
	c-3.81,0-7.403-1.675-9.858-4.595c-2.403-2.859-3.418-6.589-2.782-10.234c5.532-31.75,22.513-59.85,47.993-79.637
	c5.649,3.056,11.584,5.76,17.765,8.097v27.119h-6.518C176.087,437.75,166.361,447.475,166.361,459.43z M323.957,452.75
	c3.684,0,6.68,2.997,6.68,6.68V497H181.361v-37.57c0-3.684,2.996-6.68,6.68-6.68H323.957z M209.559,437.75v-22.301
	c14.585,3.909,30.219,5.947,46.44,5.947s31.856-2.038,46.44-5.947v22.301H209.559z M347.085,376.52
	c-23.074,19.266-55.423,29.876-91.086,29.876s-68.012-10.61-91.086-29.876c-15.048-12.564-25.685-28.272-31.587-46.385
	c-0.07-0.272-0.156-0.535-0.254-0.793c-3.431-10.823-5.186-22.492-5.186-34.857c0-6.496,0.501-12.977,1.469-19.368
	c1.442,0.297,2.908,0.448,4.375,0.448c3.148,0,6.302-0.687,9.237-2.075c23.303-11.01,41.071-26.356,52.958-45.66
	c15.467,10.956,35.752,18.739,56.887,21.681c18.087,2.519,44.645,2.599,71.365-10.236c11.405,14.034,26.465,25.526,44.853,34.214
	c2.937,1.387,6.089,2.075,9.237,2.075c1.467,0,2.932-0.15,4.375-0.448c0.969,6.391,1.469,12.872,1.469,19.368
	c0,12.364-1.755,24.032-5.186,34.854c-0.098,0.259-0.185,0.524-0.255,0.798C372.769,348.248,362.132,363.956,347.085,376.52z
	 M275.333,305.293c-3.123-2.722-7.86-2.397-10.582,0.726c-2.21,2.536-5.4,3.991-8.752,3.991s-6.542-1.455-8.752-3.991
	c-2.723-3.123-7.46-3.448-10.582-0.726c-3.123,2.722-3.447,7.459-0.727,10.581c5.061,5.806,12.372,9.135,20.061,9.135
	c7.689,0,15-3.33,20.06-9.135C278.78,312.752,278.456,308.014,275.333,305.293z M316.698,273.992
	c-11.624,0-21.081,9.457-21.081,21.081c0,4.142,3.357,7.5,7.5,7.5s7.5-3.358,7.5-7.5c0-3.353,2.728-6.081,6.081-6.081
	c3.354,0,6.081,2.728,6.081,6.081c0,4.142,3.357,7.5,7.5,7.5s7.5-3.358,7.5-7.5C337.779,283.449,328.322,273.992,316.698,273.992z"
	/>
<g>
</g>
<g>
</g>
<g>
</g>
<g>
</g>
<g>
</g>
<g>
</g>
<g>
</g>
<g>
</g>
<g>
</g>
<g>
</g>
<g>
</g>
<g>
</g>
<g>
</g>
<g>
</g>
<g>
</g>
</svg>
