<?xml version="1.0" encoding="iso-8859-1"?>
<!-- Generator: Adobe Illustrator 19.0.0, SVG Export Plug-In . SVG Version: 6.00 Build 0)  -->
<svg version="1.1" id="Capa_1" xmlns="http://www.w3.org/2000/svg" xmlns:xlink="http://www.w3.org/1999/xlink" x="0px" y="0px"
	 viewBox="0 0 512.001 512.001" style="enable-background:new 0 0 512.001 512.001;" xml:space="preserve">
<path style="fill:#8A6C68;" d="M136.786,61.149h216.567c24.217,0,43.848,19.632,43.848,43.849v302.004
	c0,24.217-19.632,43.849-43.848,43.849H51.348c-24.217,0-43.848-19.632-43.848-43.849v-210.73c0-9.206,6.546-17.205,15.616-18.781
	c47.051-8.174,95.71-51.621,101.53-105.579C125.31,65.761,130.599,61.149,136.786,61.149z"/>
<path style="fill:#F8E8B9;" d="M329.725,103.059h-161.61c-5.869,0-11.035,3.827-12.786,9.428
	c-12.667,40.502-47.916,71.024-91.007,76.813c-8.552,1.149-14.913,8.485-14.913,17.114v176.961c0,14.12,11.447,25.567,25.567,25.567
	h254.749c14.12,0,25.567-11.447,25.567-25.567V128.626C355.292,114.505,343.845,103.059,329.725,103.059z"/>
<path style="fill:#F0DBA5;" d="M329.725,103.059h-161.61c-5.869,0-11.034,3.827-12.786,9.428
	c-12.667,40.502-47.916,71.024-91.006,76.813c-6.754,0.907-12.127,5.68-14.094,11.895h305.063v-72.569
	C355.292,114.505,343.845,103.059,329.725,103.059z"/>
<path style="fill:#B18E82;" d="M244.085,61.149h216.567c24.217,0,43.849,19.632,43.849,43.849v302.004
	c0,24.217-19.632,43.849-43.849,43.849H158.647c-24.217,0-43.849-19.632-43.849-43.849v-210.73c0-9.206,6.546-17.205,15.617-18.781
	c47.051-8.174,95.71-51.621,101.53-105.579C232.609,65.761,237.898,61.149,244.085,61.149z"/>
<path style="fill:#A38277;" d="M460.651,450.851c15.994,0,29.983-8.566,37.642-21.358
	c-255.928-14.055-300.501-190.591-295.64-294.01c-19.508,22.048-46.115,37.471-72.239,42.009
	c-9.07,1.576-15.617,9.575-15.617,18.781v210.73c0,24.217,19.632,43.849,43.849,43.849L460.651,450.851L460.651,450.851z"/>
<g>
	<ellipse style="fill:#FFFFFF;" cx="234.56" cy="271.49" rx="27.708" ry="22.07"/>
	<ellipse style="fill:#FFFFFF;" cx="384.74" cy="271.49" rx="27.708" ry="22.07"/>
</g>
<ellipse style="fill:#414C59;" cx="309.65" cy="254.54" rx="22.34" ry="24.998"/>
<g>
	<circle style="fill:#8A6C68;" cx="309.65" cy="359.87" r="7.368"/>
	<circle style="fill:#8A6C68;" cx="262.26" cy="359.87" r="7.368"/>
	<circle style="fill:#8A6C68;" cx="214.88" cy="359.87" r="7.368"/>
	<circle style="fill:#8A6C68;" cx="357.04" cy="359.87" r="7.368"/>
	<circle style="fill:#8A6C68;" cx="404.42" cy="359.87" r="7.368"/>
	<circle style="fill:#8A6C68;" cx="309.65" cy="196.57" r="7.368"/>
	<circle style="fill:#8A6C68;" cx="262.26" cy="196.57" r="7.368"/>
	<circle style="fill:#8A6C68;" cx="214.88" cy="196.57" r="7.368"/>
	<circle style="fill:#8A6C68;" cx="357.04" cy="196.57" r="7.368"/>
	<circle style="fill:#8A6C68;" cx="404.42" cy="196.57" r="7.368"/>
	<circle style="fill:#8A6C68;" cx="309.65" cy="315.43" r="7.368"/>
	<circle style="fill:#8A6C68;" cx="262.26" cy="315.43" r="7.368"/>
	<circle style="fill:#8A6C68;" cx="214.88" cy="315.43" r="7.368"/>
	<circle style="fill:#8A6C68;" cx="357.04" cy="315.43" r="7.368"/>
	<circle style="fill:#8A6C68;" cx="404.42" cy="315.43" r="7.368"/>
	<circle style="fill:#8A6C68;" cx="309.65" cy="152.13" r="7.368"/>
	<circle style="fill:#8A6C68;" cx="262.26" cy="152.13" r="7.368"/>
	<circle style="fill:#8A6C68;" cx="214.88" cy="152.13" r="7.368"/>
	<circle style="fill:#8A6C68;" cx="357.04" cy="152.13" r="7.368"/>
	<circle style="fill:#8A6C68;" cx="404.42" cy="152.13" r="7.368"/>
</g>
<path d="M239.187,226.045c-4.142,0-7.5,3.358-7.5,7.5v11.893c0,4.142,3.358,7.5,7.5,7.5s7.5-3.358,7.5-7.5v-11.893
	C246.687,229.403,243.329,226.045,239.187,226.045z M380.111,226.045c-4.142,0-7.5,3.358-7.5,7.5v11.893c0,4.142,3.358,7.5,7.5,7.5
	c4.143,0,7.5-3.358,7.5-7.5v-11.893C387.611,229.403,384.254,226.045,380.111,226.045z M309.649,222.04
	c-16.454,0-29.84,14.579-29.84,32.499c0,17.919,13.386,32.498,29.84,32.498s29.84-14.579,29.84-32.498
	C339.489,236.619,326.103,222.04,309.649,222.04z M309.649,272.037c-8.183,0-14.84-7.85-14.84-17.498
	c0-9.649,6.657-17.499,14.84-17.499c8.183,0,14.84,7.85,14.84,17.499C324.489,264.187,317.832,272.037,309.649,272.037z
	 M460.651,53.649H136.787c-10.098,0-18.522,7.506-19.596,17.459c-0.517,4.786-1.416,9.609-2.674,14.337
	c-1.065,4.003,1.316,8.111,5.319,9.176c0.646,0.172,1.295,0.254,1.934,0.254c3.316,0,6.35-2.217,7.243-5.573
	c1.454-5.462,2.494-11.042,3.092-16.585c0.246-2.281,2.303-4.067,4.683-4.067h88.146c-0.192,0.803-0.354,1.618-0.444,2.459
	c-0.89,8.247-2.938,16.456-6.004,24.45h-50.369c-9.181,0-17.196,5.903-19.944,14.689c-11.942,38.187-45.247,66.298-84.847,71.619
	c-12.208,1.64-21.415,12.193-21.415,24.547v176.961c0,18.233,14.834,33.067,33.067,33.067h33.206
	c1.943,10.406,7.021,19.722,14.232,26.909H51.349C31.306,443.351,15,427.044,15,407.002v-210.73c0-5.654,3.954-10.445,9.4-11.392
	c34.596-6.01,68.733-29.338,89.089-60.881c2.246-3.48,1.245-8.122-2.235-10.369c-3.482-2.247-8.123-1.245-10.369,2.235
	c-18.159,28.138-48.45,48.92-79.053,54.237C9.182,172.3,0,183.306,0,196.273v210.73c0,28.313,23.035,51.349,51.349,51.349h409.303
	c28.313,0,51.349-23.035,51.349-51.349V104.998C512,76.685,488.965,53.649,460.651,53.649z M107.298,196.273v205.169H74.977
	c-9.962,0-18.067-8.105-18.067-18.067V206.414c0-4.875,3.617-9.036,8.412-9.681c17.649-2.371,34.196-8.709,48.644-18.127
	C109.799,183.326,107.298,189.527,107.298,196.273z M162.487,114.726c0.779-2.492,3.041-4.167,5.628-4.167h43.254
	c-5.286,9.266-12.002,18.043-20.01,25.989c-17.659,17.522-40.34,29.752-62.228,33.555c-2.037,0.354-3.972,0.958-5.805,1.741
	C141.437,157.362,155.323,137.632,162.487,114.726z M497,407.002c0,20.042-16.306,36.349-36.349,36.349H158.647
	c-20.043,0-36.349-16.306-36.349-36.349v-210.73c0-5.654,3.954-10.445,9.4-11.392c8.601-1.494,17.378-4.152,26.03-7.844v196.249
	c0,19.098,15.537,34.634,34.635,34.634h234.572c19.098,0,34.635-15.537,34.635-34.634v-11.889c0-4.142-3.357-7.5-7.5-7.5
	s-7.5,3.358-7.5,7.5v11.889c0,10.826-8.809,19.634-19.635,19.634H192.363c-10.827,0-19.635-8.808-19.635-19.634V169.512
	c20.244-11.733,38.719-29.097,51.172-50.432h203.035c10.826,0,19.635,8.808,19.635,19.634v188.039c0,4.142,3.357,7.5,7.5,7.5
	s7.5-3.358,7.5-7.5V138.714c0-19.097-15.537-34.634-34.635-34.634h-195.59c4.069-9.842,6.867-20.339,8.056-31.363
	c0.246-2.281,2.303-4.067,4.683-4.067H460.65c20.043,0,36.349,16.306,36.349,36.349v302.003H497z"/>
<g>
</g>
<g>
</g>
<g>
</g>
<g>
</g>
<g>
</g>
<g>
</g>
<g>
</g>
<g>
</g>
<g>
</g>
<g>
</g>
<g>
</g>
<g>
</g>
<g>
</g>
<g>
</g>
<g>
</g>
</svg>
